<?xml version="1.0" encoding="UTF-8"?>
<svg version="1.1" xmlns="http://www.w3.org/2000/svg" width="308" height="308">
<path d="M0 0 C16.78411751 -0.45993577 29.24347705 0.38842209 44 9 C52.52316167 13.57401345 61.09454689 17.83137257 71 16 C74.16520614 14.62784037 77.17215618 13.17349481 80.17797852 11.49047852 C83.51909508 9.62766498 85.05217331 9 89 9 C91.25813652 10.11484826 93.43073733 11.27344517 95.625 12.5 C103.14643041 16.42000169 108.04791074 17.31577251 116.234375 15.140625 C122.66331499 13.05479114 128.36486584 10.33983813 134.125 6.875 C147.01745349 -0.76392458 159.42573237 -0.39937917 174 0 C178.4568463 8.39669842 176.9360341 21.65283517 175.34765625 30.7265625 C173.45663348 36.87847348 170.29751713 41.9067624 166.73828125 47.2265625 C163.80651721 51.9042085 161.82215915 56.8032284 160 62 C159.63261719 63.01835937 159.26523438 64.03671875 158.88671875 65.0859375 C156.27642527 73.78691576 157.79258168 80.53501445 160.37402344 88.9296875 C164.69000122 103.20406019 169.32871867 119.13761195 162.375 133.3125 C156.0905366 140.42386648 149.57009242 144.50580499 141.07421875 148.51953125 C136.48107231 150.73147852 134.73283746 152.14199746 132.75 156.75 C129.64955503 163.18295917 126.03367208 166.93821477 119.25 169.3125 C115.93692755 170.59910875 115.93692755 170.59910875 115.17578125 172.8984375 C114.75646481 174.46352945 114.33719619 176.02863421 113.91796875 177.59375 C111.57798393 183.72749745 105.78166868 187.61312939 100.375 190.9375 C93.92551405 195.01437713 90.64678913 200.9952418 88 208 C87.34 208 86.68 208 86 208 C85.69707031 207.34773437 85.39414063 206.69546875 85.08203125 206.0234375 C81.66690256 198.89895364 78.42174932 193.43344787 71.625 189.125 C65.83499308 185.42287537 60.7089285 181.21744472 59.1875 174.3125 C58.36001572 170.91623411 58.36001572 170.91623411 55.87890625 169.69921875 C54.10520408 168.89011538 52.32637689 168.09216642 50.54296875 167.3046875 C45.42729302 164.6800551 42.60625393 160.81876178 40.8125 155.4375 C38.00071261 150.10479977 33.29058601 148.53919837 28 146 C22.58686313 143.21871035 18.01242396 140.70026807 14 136 C13.278125 135.195625 12.55625 134.39125 11.8125 133.5625 C5.71519849 121.57814875 8.07899369 108.28923944 11.76953125 95.98046875 C12.09187744 94.89483643 12.41422363 93.8092041 12.74633789 92.69067383 C13.40035589 90.5300758 14.07940766 88.37684904 14.78686523 86.2331543 C18.5614719 73.94452889 15.26038814 63.40209786 10 52 C8.2876966 48.88253281 6.49027729 45.83692731 4.64453125 42.796875 C-0.68935232 33.72547206 -2.1807452 26.47164058 -2.1875 16.0625 C-2.19974609 15.07314453 -2.21199219 14.08378906 -2.22460938 13.06445312 C-2.22654297 12.10603516 -2.22847656 11.14761719 -2.23046875 10.16015625 C-2.23457764 9.29011963 -2.23868652 8.42008301 -2.24291992 7.52368164 C-1.97253559 4.71467373 -1.15881263 2.5601808 0 0 Z " fill="#54555C" transform="translate(67,85)"/>
<path d="M0 0 C16.0756892 -0.45402051 27.86746413 0.75256705 42 9 C50.52316167 13.57401345 59.09454689 17.83137257 69 16 C72.16520614 14.62784037 75.17215618 13.17349481 78.17797852 11.49047852 C81.51909508 9.62766498 83.05217331 9 87 9 C89.25813652 10.11484826 91.43073733 11.27344517 93.625 12.5 C101.14643041 16.42000169 106.04791074 17.31577251 114.234375 15.140625 C120.66307525 13.05486892 126.3653822 10.3404855 132.125 6.875 C144.45035598 -0.44598692 156.06479124 -0.39356761 170 0 C170 0.66 170 1.32 170 2 C167.73304867 3.45689405 165.46880806 4.80259412 163.125 6.125 C152.77481441 12.16037744 144.29149304 19.34800726 136 28 C136.40992188 28.42410156 136.81984375 28.84820312 137.2421875 29.28515625 C140.9714905 33.34456502 142.87516702 36.47809265 144 42 C144.18820313 42.77730469 144.37640625 43.55460937 144.5703125 44.35546875 C145.52541588 50.23369591 144.70211771 56.53056607 141.29296875 61.4765625 C139.90056377 63.06864315 138.49774313 64.65166019 137.0859375 66.2265625 C134.58782679 69.54802056 133.28448311 72.8100006 131.875 76.6875 C128.36182249 86.1279966 124.69884796 90.76038233 115.48046875 95 C112.34846897 96.26266448 109.28324893 97.21487526 106 98 C106.99 95.03 107.98 92.06 109 89 C102.06554842 91.05229173 96.87900436 93.34622035 91.65625 98.4140625 C90 100 90 100 87 102 C80.96229439 101.67363753 76.7690096 97.72419162 72.5 93.8125 C69.42750631 91.10107542 67.15484012 90.28987257 63 90 C62.01 89.505 62.01 89.505 61 89 C61.309375 89.928125 61.61875 90.85625 61.9375 91.8125 C62.625 93.875 63.3125 95.9375 64 98 C54.51521948 95.74266184 46.7622033 92.11677918 41 84 C40.07588326 82.03134337 39.22148823 80.0285372 38.4375 78 C36.44603228 72.88094855 34.63543603 68.47189242 30.5 64.75 C26.4673713 60.31410843 25.2238205 55.46202551 24.6875 49.5625 C24.790625 48.386875 24.89375 47.21125 25 46 C25.06960937 45.20464844 25.13921875 44.40929687 25.2109375 43.58984375 C26.13859769 36.75608034 28.6828338 33.29354062 34 29 C25.87920805 18.95586259 17.01374137 12.04991975 5.89355469 5.62988281 C5.13204102 5.18612305 4.37052734 4.74236328 3.5859375 4.28515625 C2.8954834 3.89207275 2.2050293 3.49898926 1.49365234 3.09399414 C1.00074707 2.73297607 0.5078418 2.37195801 0 2 C0 1.34 0 0.68 0 0 Z " fill="#4C4D53" transform="translate(69,85)"/>
<path d="M0 0 C0.66 0 1.32 0 2 0 C2.09498779 0.59312988 2.18997559 1.18625977 2.2878418 1.79736328 C4.86435306 17.59894632 7.75328218 31.55285346 16.44921875 45.28125 C20.27695802 51.99184579 20.79982186 58.42120018 20 66 C19.03937375 69.25325487 17.69341415 72.06864172 16 75 C15.38125 76.0725 14.7625 77.145 14.125 78.25 C10.96094419 82.34466046 7.31192466 85.12538356 3 88 C-2.79356954 87.68683408 -6.75125971 84.30820412 -10.625 80.25 C-15.90280165 73.54208436 -18.55139151 66.54656842 -18 58 C-16.40267518 51.16472821 -13.73975486 45.0975913 -10.5625 38.875 C-4.42353104 26.36973862 -1.79721346 13.81016661 0 0 Z " fill="#515158" transform="translate(153,99)"/>
<path d="M0 0 C12.21 0 24.42 0 37 0 C35.02 0.99 35.02 0.99 33 2 C33.495 2.495 33.99 2.99 34.5 3.5 C36.71177972 7.18629954 36.34421275 9.73176192 36 14 C35.34 14.66 34.68 15.32 34 16 C34.99 16.33 35.98 16.66 37 17 C37 13.04 37 9.08 37 5 C37.33 5 37.66 5 38 5 C38 16.22 38 27.44 38 39 C25.46 39 12.92 39 0 39 C0 26.13 0 13.26 0 0 Z M14 11 C14 11.99 14 12.98 14 14 C16.97 14 19.94 14 23 14 C23 12.68 23 11.36 23 10 C19.88772805 10 17.05847848 10.45627049 14 11 Z M34 18 C34.99 18.99 35.98 19.98 37 21 C37 20.01 37 19.02 37 18 C36.01 18 35.02 18 34 18 Z M14 23 C14 24.65 14 26.3 14 28 C18.14093698 28.20970559 18.14093698 28.20970559 22 27 C22.33 27.66 22.66 28.32 23 29 C23.66 28.67 24.32 28.34 25 28 C24.67 26.35 24.34 24.7 24 23 C20.7 23 17.4 23 14 23 Z M33.4375 35.5 C32.2309375 36.7375 32.2309375 36.7375 31 38 C32.98 38 34.96 38 37 38 C37 36.35 37 34.7 37 33 C35.52263018 32.88361269 35.52263018 32.88361269 33.4375 35.5 Z " fill="#FF4C00" transform="translate(29,35)"/>
<path d="M0 0 C0.99 0.33 1.98 0.66 3 1 C6.73141631 10.78430178 5.14232729 26.98298129 1.3359375 36.41796875 C-0.61663956 40.19180921 -2.90063019 43.69756932 -5.26171875 47.2265625 C-10.62288468 55.78033287 -13.05321083 65.18691639 -15 75 C-15.66 74.67 -16.32 74.34 -17 74 C-16.96519531 72.90042969 -16.93039063 71.80085938 -16.89453125 70.66796875 C-16.63115496 58.92910131 -16.81382325 48.8967178 -24.79296875 39.55859375 C-26 38 -26 38 -26 36 C-26.556875 35.79375 -27.11375 35.5875 -27.6875 35.375 C-30.90959519 33.45915961 -32.64504586 30.91342585 -35 28 C-26.45206793 18.80340529 -17.71339334 11.54426622 -7 5 C-6.071875 4.41476563 -5.14375 3.82953125 -4.1875 3.2265625 C-2 2 -2 2 0 2 C0 1.34 0 0.68 0 0 Z " fill="#696B76" transform="translate(239,85)"/>
<path d="M0 0 C0.66 0 1.32 0 2 0 C2 0.66 2 1.32 2 2 C2.68707031 2.24621094 3.37414062 2.49242188 4.08203125 2.74609375 C17.06802964 8.32642238 28.20160292 18.11777203 37 29 C36.18015625 29.7734375 35.3603125 30.546875 34.515625 31.34375 C26.31658589 39.14073451 26.31658589 39.14073451 21 49 C20.608125 50.03125 20.21625 51.0625 19.8125 52.125 C18.57439921 58.02978837 18.31706542 63.98410089 18 70 C16 69 16 69 14.921875 66.0078125 C14.52759935 64.7146491 14.13722029 63.42029353 13.75 62.125 C11.20076301 54.04390911 7.75608357 46.858517 2.8125 39.9375 C-1.84156619 32.39470307 -2.4607678 24.36413167 -2.3125 15.6875 C-2.31572266 14.72521484 -2.31894531 13.76292969 -2.32226562 12.77148438 C-2.28681741 8.11487746 -2.25110115 4.20624079 0 0 Z " fill="#696B76" transform="translate(67,85)"/>
<path d="M0 0 C2.4375 0.75 2.4375 0.75 4.4375 2.75 C4.99493243 7.98986486 4.99493243 7.98986486 3.0625 10.625 C1.4375 11.75 1.4375 11.75 -0.5625 11.75 C-0.5625 22.64 -0.5625 33.53 -0.5625 44.75 C-8.4825 44.75 -16.4025 44.75 -24.5625 44.75 C-24.2325 42.77 -23.9025 40.79 -23.5625 38.75 C-24.5525 38.75 -25.5425 38.75 -26.5625 38.75 C-27.2225 40.73 -27.8825 42.71 -28.5625 44.75 C-32.5225 44.75 -36.4825 44.75 -40.5625 44.75 C-37.6875 35.125 -37.6875 35.125 -36.5625 31.75 C-37.2225 31.75 -37.8825 31.75 -38.5625 31.75 C-37.97889602 25.69202633 -36.17337742 20.47369857 -34 14.8125 C-32.865625 11.821875 -31.73125 8.83125 -30.5625 5.75 C-22.6425 5.75 -14.7225 5.75 -6.5625 5.75 C-6.2325 4.43 -5.9025 3.11 -5.5625 1.75 C-2.5625 -0.25 -2.5625 -0.25 0 0 Z M-2.5625 1.75 C-1.0775 2.74 -1.0775 2.74 0.4375 3.75 C1.125 6.375 1.125 6.375 1.4375 8.75 C2.0975 8.42 2.7575 8.09 3.4375 7.75 C3.1075 6.1 2.7775 4.45 2.4375 2.75 C0.7875 2.42 -0.8625 2.09 -2.5625 1.75 Z M-4.5625 3.75 C-4.8925 4.74 -5.2225 5.73 -5.5625 6.75 C-4.9025 7.41 -4.2425 8.07 -3.5625 8.75 C-3.5625 7.1 -3.5625 5.45 -3.5625 3.75 C-3.8925 3.75 -4.2225 3.75 -4.5625 3.75 Z M-29.5625 6.75 C-30.90102796 10.37310328 -32.23243718 13.99878144 -33.5625 17.625 C-33.9440625 18.65753906 -34.325625 19.69007812 -34.71875 20.75390625 C-35.0796875 21.74003906 -35.440625 22.72617187 -35.8125 23.7421875 C-36.14765625 24.65339355 -36.4828125 25.56459961 -36.828125 26.50341797 C-37.66606885 28.67290787 -37.66606885 28.67290787 -37.5625 30.75 C-36.9025 30.75 -36.2425 30.75 -35.5625 30.75 C-34.22103506 27.31561785 -32.89074095 23.87701583 -31.5625 20.4375 C-31.1809375 19.46103516 -30.799375 18.48457031 -30.40625 17.47851562 C-30.0453125 16.54072266 -29.684375 15.60292969 -29.3125 14.63671875 C-28.97734375 13.77264404 -28.6421875 12.90856934 -28.296875 12.01831055 C-27.40849308 9.67168026 -27.40849308 9.67168026 -27.5625 6.75 C-28.2225 6.75 -28.8825 6.75 -29.5625 6.75 Z M-12.5625 6.75 C-12.2325 8.4 -11.9025 10.05 -11.5625 11.75 C-8.5925 11.75 -5.6225 11.75 -2.5625 11.75 C-4.15843616 9.12842577 -4.15843616 9.12842577 -6.5625 6.75 C-9.73098027 6.33190799 -9.73098027 6.33190799 -12.5625 6.75 Z M-10.5625 13.75 C-10.30855469 14.47703125 -10.05460937 15.2040625 -9.79296875 15.953125 C-7.5870635 22.39734258 -5.74035339 28.79632373 -4.2734375 35.44921875 C-4.03882813 36.20847656 -3.80421875 36.96773437 -3.5625 37.75 C-2.9025 38.08 -2.2425 38.41 -1.5625 38.75 C-1.5353955 35.70827281 -1.51561036 32.66679003 -1.5 29.625 C-1.49162109 28.7690625 -1.48324219 27.913125 -1.47460938 27.03125 C-1.45711694 22.48321589 -1.63057642 18.22616836 -2.5625 13.75 C-5.2025 13.75 -7.8425 13.75 -10.5625 13.75 Z M-21.5625 22.75 C-22.2225 25.39 -22.8825 28.03 -23.5625 30.75 C-22.5725 30.75 -21.5825 30.75 -20.5625 30.75 C-19.20810332 28.04120665 -19.49748549 25.74066732 -19.5625 22.75 C-20.2225 22.75 -20.8825 22.75 -21.5625 22.75 Z M-21.5625 38.75 C-21.8925 40.4 -22.2225 42.05 -22.5625 43.75 C-19.5925 43.75 -16.6225 43.75 -13.5625 43.75 C-13.8925 42.1 -14.2225 40.45 -14.5625 38.75 C-16.8725 38.75 -19.1825 38.75 -21.5625 38.75 Z " fill="#FF4C00" transform="translate(283.5625,29.25)"/>
<path d="M0 0 C3.83307169 -0.11719175 7.66567608 -0.18758077 11.5 -0.25 C12.57765625 -0.28351562 13.6553125 -0.31703125 14.765625 -0.3515625 C21.68497825 -0.43594486 26.14325985 0.22322364 32 4 C34 6.75 34 6.75 35 9 C35.33 6.36 35.66 3.72 36 1 C36.33 1 36.66 1 37 1 C37 13.21 37 25.42 37 38 C34.03 38 31.06 38 28 38 C27.67 37.34 27.34 36.68 27 36 C26.23429687 36.49113281 25.46859375 36.98226562 24.6796875 37.48828125 C19.72288581 39.5246743 15.42086985 39.32743152 10.125 39.1875 C9.15046875 39.17396484 8.1759375 39.16042969 7.171875 39.14648438 C4.78067137 39.11131962 2.39063025 39.0621067 0 39 C0.33 38.34 0.66 37.68 1 37 C3.5625 36.375 3.5625 36.375 6 36 C5.57847656 35.52949219 5.15695313 35.05898437 4.72265625 34.57421875 C4.17480469 33.95160156 3.62695312 33.32898438 3.0625 32.6875 C2.51722656 32.07261719 1.97195312 31.45773438 1.41015625 30.82421875 C-0.91068275 27.82191456 -1.12222156 25.21101219 -1.09765625 21.55078125 C-1.09443359 20.70322266 -1.09121094 19.85566406 -1.08789062 18.98242188 C-1.07951172 18.10134766 -1.07113281 17.22027344 -1.0625 16.3125 C-1.05798828 15.41982422 -1.05347656 14.52714844 -1.04882812 13.60742188 C-1.03704983 11.40488013 -1.02060164 9.20247401 -1 7 C-0.34 7.66 0.32 8.32 1 9 C1.66 6.36 2.32 3.72 3 1 C2.01 0.67 1.02 0.34 0 0 Z M5 1 C5.33 1.99 5.66 2.98 6 4 C6.99 3.01 7.98 2.02 9 1 C7.68 1 6.36 1 5 1 Z M13.1875 11.5625 C11.1944761 15.6534438 10.5781164 19.31246561 11.6875 23.75 C13.22461808 26.38505956 14.26074565 27.63037283 17 29 C20.16331465 28.93154626 20.16331465 28.93154626 23 28 C23.33 27.34 23.66 26.68 24 26 C22.68 26 21.36 26 20 26 C20 23.36 20 20.72 20 18 C19.34 18 18.68 18 18 18 C18 20.31 18 22.62 18 25 C17.34 25 16.68 25 16 25 C16 22.69 16 20.38 16 18 C25.9 17.505 25.9 17.505 36 17 C36 16.01 36 15.02 36 14 C35.08476562 13.96261719 34.16953125 13.92523438 33.2265625 13.88671875 C32.03804687 13.82097656 30.84953125 13.75523438 29.625 13.6875 C28.44164062 13.62949219 27.25828125 13.57148437 26.0390625 13.51171875 C24.53472656 13.25841797 24.53472656 13.25841797 23 13 C22.34 12.01 21.68 11.02 21 10 C17.63229153 9.4984264 15.82655537 9.28745226 13.1875 11.5625 Z " fill="#FF4C00" transform="translate(110,35)"/>
<path d="M0 0 C2.51564471 1.11806432 4.35798767 2.29533983 6.5 4.0625 C10.36544661 7.05822112 13.62934141 7.13833747 18.4375 7.125 C19.82775391 7.12886719 19.82775391 7.12886719 21.24609375 7.1328125 C23.92865981 7.00344052 26.38568718 6.59782834 29 6 C28.88772517 12.28739055 27.54324935 15.44214038 23.23046875 20.00390625 C20.76040885 22.2144152 18.16646938 24.05737785 15.4375 25.9375 C8.57628796 30.72526884 4.94271699 36.25672166 2 44 C1.34 44 0.68 44 0 44 C-0.30292969 43.34773438 -0.60585937 42.69546875 -0.91796875 42.0234375 C-4.33309744 34.89895364 -7.57825068 29.43344787 -14.375 25.125 C-19.01068449 22.15599137 -23.17116364 18.79049966 -26 14 C-26.6875 10.24609375 -26.6875 10.24609375 -27 7 C-25.84242187 7.03480469 -24.68484375 7.06960938 -23.4921875 7.10546875 C-21.9531396 7.13362207 -20.41407589 7.16092056 -18.875 7.1875 C-18.11445313 7.21263672 -17.35390625 7.23777344 -16.5703125 7.26367188 C-10.39878554 7.3434761 -6.2818597 6.10171288 -1.625 1.8125 C-1.08875 1.214375 -0.5525 0.61625 0 0 Z " fill="#4D4F55" transform="translate(153,249)"/>
<path d="M0 0 C6.249375 -0.0928125 6.249375 -0.0928125 12.625 -0.1875 C13.92775879 -0.21481201 15.23051758 -0.24212402 16.57275391 -0.27026367 C27.19486415 -0.34673497 27.19486415 -0.34673497 32 3 C32.495 3.495 32.495 3.495 33 4 C33.66 2.68 34.32 1.36 35 0 C35.10845031 2.56364483 35.18749744 5.12266279 35.25 7.6875 C35.30027344 8.7693457 35.30027344 8.7693457 35.3515625 9.87304688 C35.42478439 13.88194518 35.28590487 15.57169678 32.984375 19.01953125 C32.32953125 19.67308594 31.6746875 20.32664062 31 21 C31.47050781 21.34675781 31.94101563 21.69351563 32.42578125 22.05078125 C35.77839817 26.20203644 35.39568076 32.93301556 36 38 C29.4 38 22.8 38 16 38 C16 37.67 16 37.34 16 37 C17.98 37 19.96 37 22 37 C21.34 33.7 20.68 30.4 20 27 C17.36 26.34 14.72 25.68 12 25 C12.09539062 25.77085938 12.19078125 26.54171875 12.2890625 27.3359375 C12.39992187 28.33882812 12.51078125 29.34171875 12.625 30.375 C12.74101562 31.37273437 12.85703125 32.37046875 12.9765625 33.3984375 C12.98429688 34.25695312 12.99203125 35.11546875 13 36 C12.34 36.66 11.68 37.32 11 38 C7.37 38 3.74 38 0 38 C0 25.46 0 12.92 0 0 Z M11 10 C11.33 11.98 11.66 13.96 12 16 C14.97 16 17.94 16 21 16 C21.38218767 14.34385343 21.71395102 12.67542976 22 11 C20.96593327 9.74050951 20.96593327 9.74050951 18.71484375 9.90234375 C17.79832031 9.91394531 16.88179687 9.92554688 15.9375 9.9375 C15.01839844 9.94652344 14.09929687 9.95554687 13.15234375 9.96484375 C12.44207031 9.97644531 11.73179687 9.98804688 11 10 Z " fill="#FF4C00" transform="translate(166,35)"/>
<path d="M0 0 C8.25 0 16.5 0 25 0 C25 0.33 25 0.66 25 1 C22.69 1 20.38 1 18 1 C18.33 2.65 18.66 4.3 19 6 C21.97 6 24.94 6 28 6 C28 4.35 28 2.7 28 1 C28.33 1 28.66 1 29 1 C30.07496429 8.84894563 30.14937824 16.58519738 30.125 24.5 C30.13080078 26.42972656 30.13080078 26.42972656 30.13671875 28.3984375 C30.13542969 29.61789063 30.13414063 30.83734375 30.1328125 32.09375 C30.13168457 33.20427734 30.13055664 34.31480469 30.12939453 35.45898438 C30 38 30 38 29 39 C27.29227642 39.08713831 25.58101351 39.10700007 23.87109375 39.09765625 C22.83662109 39.09443359 21.80214844 39.09121094 20.73632812 39.08789062 C19.64771484 39.07951172 18.55910156 39.07113281 17.4375 39.0625 C15.7987793 39.05573242 15.7987793 39.05573242 14.12695312 39.04882812 C11.41791505 39.03699826 8.70898401 39.02051543 6 39 C6.33 37.02 6.66 35.04 7 33 C6.01 33 5.02 33 4 33 C3.34 34.98 2.68 36.96 2 39 C-1.96 39 -5.92 39 -10 39 C-7.125 29.375 -7.125 29.375 -6 26 C-6.66 26 -7.32 26 -8 26 C-7.41639602 19.94202633 -5.61087742 14.72369857 -3.4375 9.0625 C-2.303125 6.071875 -1.16875 3.08125 0 0 Z M1 1 C-0.33852796 4.62310328 -1.66993718 8.24878144 -3 11.875 C-3.3815625 12.90753906 -3.763125 13.94007812 -4.15625 15.00390625 C-4.5171875 15.99003906 -4.878125 16.97617187 -5.25 17.9921875 C-5.58515625 18.90339355 -5.9203125 19.81459961 -6.265625 20.75341797 C-7.10356885 22.92290787 -7.10356885 22.92290787 -7 25 C-6.34 25 -5.68 25 -5 25 C-3.66147204 21.37689672 -2.33006282 17.75121856 -1 14.125 C-0.6184375 13.09246094 -0.236875 12.05992188 0.15625 10.99609375 C0.5171875 10.00996094 0.878125 9.02382813 1.25 8.0078125 C1.58515625 7.09660645 1.9203125 6.18540039 2.265625 5.24658203 C3.10356885 3.07709213 3.10356885 3.07709213 3 1 C2.34 1 1.68 1 1 1 Z M20 8 C20.18175781 8.58265625 20.36351563 9.1653125 20.55078125 9.765625 C22.35295439 15.64348202 23.88663002 21.53686382 25.25390625 27.53125 C25.83243258 30.14730629 25.83243258 30.14730629 28 32 C28 24.08 28 16.16 28 8 C25.36 8 22.72 8 20 8 Z M9 17 C8.34 19.64 7.68 22.28 7 25 C7.99 25 8.98 25 10 25 C10.33 22.69 10.66 20.38 11 18 C10.34 17.67 9.68 17.34 9 17 Z M11 23 C11 23.66 11 24.32 11 25 C11.66 24.67 12.32 24.34 13 24 C12.34 23.67 11.68 23.34 11 23 Z M9 33 C8.34 34.65 7.68 36.3 7 38 C10.3 38 13.6 38 17 38 C16.34 36.35 15.68 34.7 15 33 C13.02 33 11.04 33 9 33 Z " fill="#FF4C00" transform="translate(78,35)"/>
<path d="M0 0 C1.00023193 0.00523682 2.00046387 0.01047363 3.03100586 0.01586914 C4.1105957 0.0190918 5.19018555 0.02231445 6.30249023 0.02563477 C8.00695312 0.03820313 8.00695312 0.03820313 9.74584961 0.05102539 C11.45611328 0.05779297 11.45611328 0.05779297 13.20092773 0.06469727 C16.02845312 0.07652792 18.85587601 0.09301129 21.68334961 0.11352539 C21.68334961 0.44352539 21.68334961 0.77352539 21.68334961 1.11352539 C19.70334961 1.44352539 17.72334961 1.77352539 15.68334961 2.11352539 C16.01334961 3.10352539 16.34334961 4.09352539 16.68334961 5.11352539 C19.65334961 5.44352539 22.62334961 5.77352539 25.68334961 6.11352539 C25.68334961 4.46352539 25.68334961 2.81352539 25.68334961 1.11352539 C26.01334961 1.11352539 26.34334961 1.11352539 26.68334961 1.11352539 C26.68334961 13.65352539 26.68334961 26.19352539 26.68334961 39.11352539 C19.09334961 39.11352539 11.50334961 39.11352539 3.68334961 39.11352539 C4.01334961 37.13352539 4.34334961 35.15352539 4.68334961 33.11352539 C3.19834961 33.60852539 3.19834961 33.60852539 1.68334961 34.11352539 C0.69334961 36.58852539 0.69334961 36.58852539 -0.31665039 39.11352539 C-4.27665039 39.11352539 -8.23665039 39.11352539 -12.31665039 39.11352539 C-10.44165039 30.00638253 -10.44165039 30.00638253 -8.31665039 26.11352539 C-8.97665039 26.11352539 -9.63665039 26.11352539 -10.31665039 26.11352539 C-9.76705292 20.0610832 -8.41932628 14.86416042 -6.31665039 9.17602539 C-5.90672852 8.02650391 -5.90672852 8.02650391 -5.48852539 6.85375977 C-3.06599801 0.1502465 -3.06599801 0.1502465 0 0 Z M-1.31665039 1.11352539 C-2.47223312 3.98470055 -3.61431906 6.86106468 -4.75415039 9.73852539 C-5.07963867 10.54676758 -5.40512695 11.35500977 -5.74047852 12.18774414 C-7.43887493 16.49501753 -8.78394538 20.4767409 -9.31665039 25.11352539 C-8.65665039 25.11352539 -7.99665039 25.11352539 -7.31665039 25.11352539 C-4.67665039 17.19352539 -2.03665039 9.27352539 0.68334961 1.11352539 C0.02334961 1.11352539 -0.63665039 1.11352539 -1.31665039 1.11352539 Z M17.68334961 8.11352539 C19.3093019 16.64210533 21.83139447 24.92173935 24.68334961 33.11352539 C25.01334961 33.11352539 25.34334961 33.11352539 25.68334961 33.11352539 C25.68334961 24.86352539 25.68334961 16.61352539 25.68334961 8.11352539 C23.04334961 8.11352539 20.40334961 8.11352539 17.68334961 8.11352539 Z M6.68334961 16.11352539 C6.02334961 19.08352539 5.36334961 22.05352539 4.68334961 25.11352539 C5.67334961 24.78352539 6.66334961 24.45352539 7.68334961 24.11352539 C8.37117321 21.75984826 8.37117321 21.75984826 8.68334961 19.11352539 C8.02334961 18.12352539 7.36334961 17.13352539 6.68334961 16.11352539 Z M8.68334961 22.11352539 C9.68334961 25.11352539 9.68334961 25.11352539 9.68334961 25.11352539 Z M5.68334961 33.11352539 C5.35334961 34.76352539 5.02334961 36.41352539 4.68334961 38.11352539 C7.65334961 38.11352539 10.62334961 38.11352539 13.68334961 38.11352539 C13.35334961 36.46352539 13.02334961 34.81352539 12.68334961 33.11352539 C10.37334961 33.11352539 8.06334961 33.11352539 5.68334961 33.11352539 Z " fill="#FF4C00" transform="translate(215.316650390625,34.886474609375)"/>
<path d="M0 0 C0.33 0 0.66 0 1 0 C1 12.54 1 25.08 1 38 C1.66 38 2.32 38 3 38 C3 25.46 3 12.92 3 0 C6.96 0 10.92 0 15 0 C15 12.87 15 25.74 15 39 C10.05 39 5.1 39 0 39 C0 26.13 0 13.26 0 0 Z " fill="#FF4C00" transform="translate(148,35)"/>
<path d="M0 0 C1.32 0 2.64 0 4 0 C4 3.96 4 7.92 4 12 C6.31 12 8.62 12 11 12 C11.18175781 11.07767578 11.18175781 11.07767578 11.3671875 10.13671875 C11.53476562 9.32847656 11.70234375 8.52023438 11.875 7.6875 C12.03742187 6.88699219 12.19984375 6.08648437 12.3671875 5.26171875 C13 3 13 3 15 0 C17.625 -0.1875 17.625 -0.1875 20 0 C20.83719383 2.29032311 21.6698929 4.58210957 22.5 6.875 C22.73847656 7.52597656 22.97695312 8.17695313 23.22265625 8.84765625 C25 13.7734375 25 13.7734375 25 16 C23.35 16 21.7 16 20 16 C19.67 15.01 19.34 14.02 19 13 C16.98491642 12.26676204 16.98491642 12.26676204 15 12 C14.67 13.32 14.34 14.64 14 16 C9.38 16 4.76 16 0 16 C0 10.72 0 5.44 0 0 Z M17 6 C16.67 6.99 16.34 7.98 16 9 C16.66 9 17.32 9 18 9 C17.67 8.01 17.34 7.02 17 6 Z " fill="#FEFEFE" transform="translate(43,15)"/>
<path d="M0 0 C0.70962891 0.54527344 0.70962891 0.54527344 1.43359375 1.1015625 C5.11256679 3.89844259 8.82574215 6.58505189 12.6875 9.125 C19.0432524 13.3549004 23.49203084 17.10348192 27 24 C27 24.66 27 25.32 27 26 C18.58356285 23.9969231 11.92812378 20.82195827 5.6875 14.75 C3.09205743 10.52038989 0 5.06597529 0 0 Z " fill="#F54B03" transform="translate(106,157)"/>
<path d="M0 0 C0.33 0.66 0.66 1.32 1 2 C-1.96618117 10.64429942 -5.63814835 17.43842561 -13.875 21.75 C-17.85499661 23.60296249 -21.73473373 24.98004502 -26 26 C-23.35301521 17.52964866 -18.11580158 12.68244087 -10.546875 8.51953125 C-6.60271429 6.16634334 -3.32862821 3.14267132 0 0 Z " fill="#F74C03" transform="translate(201,157)"/>
<path d="M0 0 C8 0 8 0 11 2 C11.125 4.8125 11.125 4.8125 11 8 C11.226875 8.886875 11.45375 9.77375 11.6875 10.6875 C12 13 12 13 10.8125 14.6328125 C8.4890836 16.38538952 7.18732262 16.31249229 4.3125 16.1875 C2.889375 16.125625 1.46625 16.06375 0 16 C0 10.72 0 5.44 0 0 Z M4 4 C4 4.66 4 5.32 4 6 C4.99 6 5.98 6 7 6 C7 5.34 7 4.68 7 4 C6.01 4 5.02 4 4 4 Z M4 9 C4 9.99 4 10.98 4 12 C4.99 12 5.98 12 7 12 C7 11.34 7 10.68 7 10 C6.01 9.67 5.02 9.34 4 9 Z " fill="#FEFEFE" transform="translate(29,15)"/>
<path d="M0 0 C1.32 0 2.64 0 4 0 C4.33 1.32 4.66 2.64 5 4 C5.391875 3.34 5.78375 2.68 6.1875 2 C8 0 8 0 10.6875 -0.25 C11.8321875 -0.12625 11.8321875 -0.12625 13 0 C12.690625 0.7425 12.38125 1.485 12.0625 2.25 C11.711875 3.1575 11.36125 4.065 11 5 C10.731875 5.66 10.46375 6.32 10.1875 7 C9.90862552 9.97466116 11.39987436 11.56780903 13 14 C13 14.66 13 15.32 13 16 C11.35 16 9.7 16 8 16 C7.71125 15.360625 7.4225 14.72125 7.125 14.0625 C6.17176549 11.84793921 6.17176549 11.84793921 4 11 C4 12.65 4 14.3 4 16 C2.68 16 1.36 16 0 16 C0 10.72 0 5.44 0 0 Z " fill="#FEFEFE" transform="translate(81,15)"/>
<path d="M0 0 C0 1.32 0 2.64 0 4 C-1.98 4.33 -3.96 4.66 -6 5 C-6 6.98 -6 8.96 -6 11 C-3.03 11.495 -3.03 11.495 0 12 C0 13.32 0 14.64 0 16 C-7.46876714 16.36731642 -7.46876714 16.36731642 -9.734375 14.80078125 C-11.39653357 12.43579637 -11.43322419 10.87334428 -11.4375 8 C-11.45683594 7.13375 -11.47617188 6.2675 -11.49609375 5.375 C-11 3 -11 3 -9.20703125 1.19921875 C-6.10153265 -0.48819377 -3.47007365 -0.20019656 0 0 Z " fill="#FEFEFE" transform="translate(79,15)"/>
<path d="M0 0 C0.33 0 0.66 0 1 0 C1 12.54 1 25.08 1 38 C0.67 38 0.34 38 0 38 C0 25.46 0 12.92 0 0 Z " fill="#FF4C00" transform="translate(164,35)"/>
</svg>
